<?xml version="1.0" encoding="iso-8859-1"?>
<!-- Generator: Adobe Illustrator 19.0.0, SVG Export Plug-In . SVG Version: 6.00 Build 0)  -->
<svg version="1.1" id="Layer_1" xmlns="http://www.w3.org/2000/svg" xmlns:xlink="http://www.w3.org/1999/xlink" x="0px" y="0px"
	 viewBox="0 0 492 492" style="enable-background:new 0 0 492 492;" xml:space="preserve">
<g>
	<g>
		<path d="M345.652,227.266l-94.356-94.348c-5.064-5.068-11.82-7.856-19.024-7.856c-7.208,0-13.964,2.788-19.028,7.856
			l-16.12,16.116c-5.064,5.064-7.852,11.82-7.852,19.024c0,7.208,2.788,14.008,7.852,19.076l20.384,20.428H26.944
			C12.108,207.562,0,219.542,0,234.378v0.092v22.708c0,14.832,12.108,27.26,26.944,27.26H218.68l-21.52,21.344
			c-5.064,5.06-7.852,11.728-7.852,18.932c0,7.204,2.788,13.916,7.852,18.98l16.12,16.1c5.068,5.064,11.82,7.84,19.024,7.84
			c7.212,0,13.964-2.796,19.032-7.856l94.316-94.328c5.08-5.08,7.868-11.864,7.844-19.084
			C353.52,239.126,350.732,232.342,345.652,227.266z"/>
	</g>
</g>
<g>
	<g>
		<path d="M453.316,0.002H188.22c-21.196,0-38.312,17.464-38.312,38.66v34.404c0,14.728,12.316,26.876,27.04,26.876h22.796
			c13.56,0,24.8-11.532,26.64-23.064h188.744v338.248H226.416c-1.756-13.148-13.056-23.064-26.672-23.064h-22.796
			c-14.724,0-27.04,12.18-27.04,26.908v34.592c0,21.196,17.116,38.436,38.312,38.436h265.096c21.196,0,38.684-17.244,38.684-38.436
			v-414.9C492,17.466,474.512,0.002,453.316,0.002z"/>
	</g>
</g>
<g>
</g>
<g>
</g>
<g>
</g>
<g>
</g>
<g>
</g>
<g>
</g>
<g>
</g>
<g>
</g>
<g>
</g>
<g>
</g>
<g>
</g>
<g>
</g>
<g>
</g>
<g>
</g>
<g>
</g>
</svg>
